# xmcd
#
# Track frame offsets: 
#        150
#        9415
#        20020
#        32010
#        42772
#        50860
#        61305
#        71987
#        86202
#        98597
#        109562
#        120950
#        133967
#        153712
#
# Disc length: 2218 seconds
#
# Revision: 2
# Processed by: cddbd v1.4PL0 Copyright (c) Steve Scherf et al.
# Submitted via: ExactAudioCopy v0.90a11
#
DISCID=be08a80e
DTITLE=Poutnici - Co uz je pryc
DYEAR=1997
DGENRE=Bluegrass
TTITLE0=Zjizveny
TTITLE1=Co uz je pryc
TTITLE2=Slavkov
TTITLE3=Svata's Breakdown
TTITLE4=Plonk deset
TTITLE5=Zaprasena krasa
TTITLE6=Vic ledu tam dej
TTITLE7=Motorest
TTITLE8=Mesto
TTITLE9=Stiny na strechach
TTITLE10=Komu mam lhat
TTITLE11=Min uspesny muz
TTITLE12=Lochneska nadhera
TTITLE13=Vzpominky
EXTD=GZ L1 0294-2
EXTT0=
EXTT1=
EXTT2=
EXTT3=
EXTT4=
EXTT5=
EXTT6=
EXTT7=
EXTT8=
EXTT9=
EXTT10=
EXTT11=
EXTT12=
EXTT13=
PLAYORDER=
